<?xml version="1.0" encoding="UTF-8" standalone="no"?>
<!-- Generator: Adobe Illustrator 22.0.1, SVG Export Plug-In . SVG Version: 6.00 Build 0)  -->

<svg
   xmlns:dc="http://purl.org/dc/elements/1.1/"
   xmlns:cc="http://creativecommons.org/ns#"
   xmlns:rdf="http://www.w3.org/1999/02/22-rdf-syntax-ns#"
   xmlns:svg="http://www.w3.org/2000/svg"
   xmlns="http://www.w3.org/2000/svg"
   xmlns:sodipodi="http://sodipodi.sourceforge.net/DTD/sodipodi-0.dtd"
   xmlns:inkscape="http://www.inkscape.org/namespaces/inkscape"
   version="1.1"
   id="Layer_1"
   x="0px"
   y="0px"
   viewBox="0 0 30 30"
   style="enable-background:new 0 0 30 30;"
   xml:space="preserve"
   sodipodi:docname="wi-cloudy.svg"
   inkscape:version="0.92.3 (5aff6ba, 2018-11-25)"><metadata
   id="metadata9"><rdf:RDF><cc:Work
       rdf:about=""><dc:format>image/svg+xml</dc:format><dc:type
         rdf:resource="http://purl.org/dc/dcmitype/StillImage" /></cc:Work></rdf:RDF></metadata><defs
   id="defs7" /><sodipodi:namedview
   pagecolor="#ffffff"
   bordercolor="#666666"
   borderopacity="1"
   objecttolerance="10"
   gridtolerance="10"
   guidetolerance="10"
   inkscape:pageopacity="0"
   inkscape:pageshadow="2"
   inkscape:window-width="640"
   inkscape:window-height="480"
   id="namedview5"
   showgrid="false"
   inkscape:zoom="7.8666667"
   inkscape:cx="15"
   inkscape:cy="15"
   inkscape:window-x="67"
   inkscape:window-y="27"
   inkscape:window-maximized="0"
   inkscape:current-layer="Layer_1" />
<path
   d="M3.89,17.6c0-0.99,0.31-1.88,0.93-2.65s1.41-1.27,2.38-1.49c0.26-1.17,0.85-2.14,1.78-2.88c0.93-0.75,2-1.12,3.22-1.12  c1.18,0,2.24,0.36,3.16,1.09c0.93,0.73,1.53,1.66,1.8,2.8h0.27c1.18,0,2.18,0.41,3.01,1.24s1.25,1.83,1.25,3  c0,1.18-0.42,2.18-1.25,3.01s-1.83,1.25-3.01,1.25H8.16c-0.58,0-1.13-0.11-1.65-0.34S5.52,21,5.14,20.62  c-0.38-0.38-0.68-0.84-0.91-1.36S3.89,18.17,3.89,17.6z M5.34,17.6c0,0.76,0.28,1.42,0.82,1.96s1.21,0.82,1.99,0.82h9.28  c0.77,0,1.44-0.27,1.99-0.82c0.55-0.55,0.83-1.2,0.83-1.96c0-0.76-0.27-1.42-0.83-1.96c-0.55-0.54-1.21-0.82-1.99-0.82h-1.39  c-0.1,0-0.15-0.05-0.15-0.15l-0.07-0.49c-0.1-0.94-0.5-1.73-1.19-2.35s-1.51-0.93-2.45-0.93c-0.94,0-1.76,0.31-2.46,0.94  c-0.7,0.62-1.09,1.41-1.18,2.34l-0.07,0.42c0,0.1-0.05,0.15-0.16,0.15l-0.45,0.07c-0.72,0.06-1.32,0.36-1.81,0.89  C5.59,16.24,5.34,16.87,5.34,17.6z M14.19,8.88c-0.1,0.09-0.08,0.16,0.07,0.21c0.43,0.19,0.79,0.37,1.08,0.55  c0.11,0.03,0.19,0.02,0.22-0.03c0.61-0.57,1.31-0.86,2.12-0.86c0.81,0,1.5,0.27,2.1,0.81c0.59,0.54,0.92,1.21,0.99,2l0.09,0.64h1.42  c0.65,0,1.21,0.23,1.68,0.7c0.47,0.47,0.7,1.02,0.7,1.66c0,0.6-0.21,1.12-0.62,1.57s-0.92,0.7-1.53,0.77c-0.1,0-0.15,0.05-0.15,0.16  v1.13c0,0.11,0.05,0.16,0.15,0.16c1.01-0.06,1.86-0.46,2.55-1.19s1.04-1.6,1.04-2.6c0-1.06-0.37-1.96-1.12-2.7  c-0.75-0.75-1.65-1.12-2.7-1.12h-0.15c-0.26-1-0.81-1.82-1.65-2.47c-0.83-0.65-1.77-0.97-2.8-0.97C16.28,7.29,15.11,7.82,14.19,8.88  z"
   id="path2"
   style="fill:#ffffff" />
</svg>